<svg width="42" height="42" viewBox="0 0 42 42" fill="none" xmlns="http://www.w3.org/2000/svg">
<path d="M27.8917 5.23047C30.2033 5.23047 32.4203 6.14878 34.0549 7.78339C35.6896 9.418 36.6079 11.635 36.6079 13.9467V27.8926C36.6079 30.2043 35.6896 32.4213 34.0549 34.0559C32.4203 35.6905 30.2033 36.6088 27.8917 36.6088H13.9457C11.634 36.6088 9.41702 35.6905 7.78241 34.0559C6.14781 32.4213 5.22949 30.2043 5.22949 27.8926V13.9467C5.22949 11.635 6.14781 9.418 7.78241 7.78339C9.41702 6.14878 11.634 5.23047 13.9457 5.23047H27.8917ZM20.9187 13.9467C19.0693 13.9467 17.2957 14.6813 15.988 15.989C14.6804 17.2967 13.9457 19.0703 13.9457 20.9197C13.9457 22.769 14.6804 24.5426 15.988 25.8503C17.2957 27.158 19.0693 27.8926 20.9187 27.8926C22.768 27.8926 24.5416 27.158 25.8493 25.8503C27.157 24.5426 27.8917 22.769 27.8917 20.9197C27.8917 19.0703 27.157 17.2967 25.8493 15.989C24.5416 14.6813 22.768 13.9467 20.9187 13.9467ZM20.9187 17.4332C21.8434 17.4332 22.7302 17.8005 23.384 18.4543C24.0378 19.1082 24.4052 19.995 24.4052 20.9197C24.4052 21.8443 24.0378 22.7311 23.384 23.385C22.7302 24.0388 21.8434 24.4061 20.9187 24.4061C19.994 24.4061 19.1072 24.0388 18.4534 23.385C17.7995 22.7311 17.4322 21.8443 17.4322 20.9197C17.4322 19.995 17.7995 19.1082 18.4534 18.4543C19.1072 17.8005 19.994 17.4332 20.9187 17.4332ZM28.7633 11.3318C28.3009 11.3318 27.8575 11.5155 27.5306 11.8424C27.2037 12.1693 27.02 12.6127 27.02 13.0751C27.02 13.5374 27.2037 13.9808 27.5306 14.3077C27.8575 14.6346 28.3009 14.8183 28.7633 14.8183C29.2256 14.8183 29.669 14.6346 29.9959 14.3077C30.3229 13.9808 30.5065 13.5374 30.5065 13.0751C30.5065 12.6127 30.3229 12.1693 29.9959 11.8424C29.669 11.5155 29.2256 11.3318 28.7633 11.3318Z" fill="#1E1E1E" fill-opacity="0.96"/>
</svg>
