<svg width="170" height="21" viewBox="0 0 170 21" fill="none" xmlns="http://www.w3.org/2000/svg">
<g clip-path="url(#clip0_142_195)">
<path d="M14.5754 19.7331C14.0499 20.1194 13.5243 20.33 13.0688 20.33H11.1068C10.5812 20.33 10.2659 20.1194 10.0556 19.7331L0.0700742 1.12372C0 1.01838 0 0.877935 0 0.772598C0 0.386365 0.280297 0.105469 0.946002 0.105469H13.1389C13.8046 0.105469 14.19 0.281029 14.4002 0.702374L20.5668 12.6054L37.8401 0.702374C38.4007 0.316141 38.9612 0.105469 39.662 0.105469H41.589C41.8693 0.105469 41.9744 0.210805 41.9744 0.421478C41.9744 0.63215 41.7993 0.842823 41.4839 1.08861L14.5754 19.7331Z" fill="white"/>
<path d="M51.9949 20.33C51.3292 20.33 50.9438 20.1194 50.7336 19.7331L44.5671 7.83013L31.4632 16.8539H44.9175C45.3029 16.8539 45.443 16.9944 45.443 17.2402C45.443 17.3455 45.408 17.5211 45.3379 17.6615L44.497 19.5576C44.2517 20.0842 43.8663 20.3651 43.3758 20.3651H23.6149C23.3346 20.3651 23.2295 20.2598 23.2295 20.014C23.2295 19.8033 23.4047 19.5927 23.72 19.382L50.6285 0.667262C51.1541 0.316141 51.6446 0.105469 52.1351 0.105469H54.0621C54.6227 0.105469 54.9381 0.316141 55.1132 0.667262L65.1339 19.3118C65.1689 19.4171 65.2039 19.5576 65.2039 19.6629C65.2039 20.014 64.9236 20.33 64.2579 20.33H51.9949Z" fill="white"/>
<path d="M73.088 20.33C68.9536 20.33 67.0967 18.6447 67.0967 15.941C67.0967 14.7823 67.447 13.4129 68.1128 11.9734L73.053 0.877935C73.2982 0.386365 73.6486 0.105469 74.1742 0.105469H85.5262C85.9116 0.105469 86.0868 0.210805 86.0868 0.491702C86.0868 0.597038 86.0517 0.737486 85.9817 0.877935L80.8312 12.5C80.3057 13.6938 80.0254 14.5716 80.0254 15.2739C80.0254 16.3624 80.7611 16.889 82.3729 16.889H94.0052C94.3906 16.889 94.5307 17.0295 94.5307 17.2753C94.5307 17.3806 94.4957 17.5562 94.4256 17.6966L93.5847 19.5927C93.3395 20.1194 92.9541 20.4003 92.4635 20.4003H73.088V20.33Z" fill="white"/>
<path d="M102.764 20.33C98.6292 20.33 96.4219 17.5561 96.4219 13.9045C96.4219 6.95228 103.885 0.0703125 111.768 0.0703125H126.309C130.478 0.0703125 132.72 2.73883 132.72 6.39049C132.72 13.3778 125.047 20.2949 117.304 20.2949H102.764V20.33ZM120.597 8.21632C121.263 6.81183 121.579 5.82869 121.579 5.09134C121.579 3.96775 120.738 3.58152 119.161 3.58152H115.132C112.819 3.58152 111.383 4.63488 109.841 8.21632L108.405 11.4466C107.634 13.1671 107.283 14.396 107.283 15.2387C107.283 16.3974 107.949 16.8539 109.245 16.8539H113.31C115.727 16.8539 117.409 15.4845 119.161 11.4466L120.597 8.21632Z" fill="white"/>
<path d="M154.969 20.2597C154.198 20.2597 153.638 20.0139 153.322 19.4521L148.382 10.0421C148.277 9.8665 148.172 9.72605 148.172 9.48026C148.172 9.37493 148.242 9.19937 148.347 8.95358L148.662 8.28645C148.908 7.79488 149.258 7.51399 149.783 7.51399H153.813C156.406 7.51399 157.737 6.28506 157.737 4.84547C157.737 4.00278 157.071 3.51121 155.6 3.51121H148.978L141.9 19.4521C141.655 19.9788 141.305 20.2597 140.779 20.2597H130.618C130.268 20.2597 130.058 20.1543 130.058 19.9086C130.058 19.7681 130.093 19.6277 130.163 19.4521L138.502 0.772466C138.747 0.280897 139.097 0 139.623 0H165.515C168.283 0 169.965 1.4396 169.965 3.58143C169.965 7.47887 165.971 10.2878 161.136 10.8847L165.62 19.2765C165.655 19.3468 165.69 19.4521 165.69 19.5574C165.69 19.8734 165.375 20.2246 164.884 20.2246H154.969V20.2597Z" fill="white"/>
</g>
<defs>
<clipPath id="clip0_142_195">
<rect width="170" height="20.3299" fill="white"/>
</clipPath>
</defs>
</svg>
