<svg width="34" height="34" viewBox="0 0 34 34" fill="none" xmlns="http://www.w3.org/2000/svg">
<path fill-rule="evenodd" clip-rule="evenodd" d="M7.08366 1.41602C5.58076 1.41602 4.13943 2.01304 3.07672 3.07574C2.01401 4.13845 1.41699 5.57979 1.41699 7.08268V26.916C1.41699 28.4189 2.01401 29.8602 3.07672 30.9229C4.13943 31.9857 5.58076 32.5827 7.08366 32.5827H26.917C28.4199 32.5827 29.8612 31.9857 30.9239 30.9229C31.9866 29.8602 32.5837 28.4189 32.5837 26.916V7.08268C32.5837 5.57979 31.9866 4.13845 30.9239 3.07574C29.8612 2.01304 28.4199 1.41602 26.917 1.41602H7.08366ZM6.61049 6.37435C6.45541 6.43198 6.31593 6.52503 6.20316 6.64609C6.0904 6.76715 6.00746 6.91287 5.96095 7.07164C5.91445 7.23042 5.90567 7.39786 5.9353 7.56062C5.96494 7.72339 6.03218 7.87699 6.13166 8.00918L14.0848 18.5633L5.70524 27.5521L5.64291 27.6243H8.54282L15.3853 20.2874L20.644 27.2688C20.766 27.4304 20.9316 27.5537 21.1214 27.6243H27.3859C27.5408 27.5664 27.6799 27.4731 27.7924 27.3519C27.9049 27.2307 27.9875 27.085 28.0337 26.9262C28.0799 26.7675 28.0885 26.6002 28.0586 26.4376C28.0288 26.2749 27.9614 26.1215 27.8619 25.9895L19.9087 15.4353L28.3577 6.37435H25.4536L18.6111 13.7127L13.3496 6.73135C13.2278 6.56923 13.0621 6.44535 12.8722 6.37435H6.61049ZM22.0238 25.5673L9.11091 8.43135H11.9712L24.8827 25.5659L22.0238 25.5673Z" fill="#1E1E1E" fill-opacity="0.96"/>
</svg>
